<?xml version="1.0" encoding="UTF-8" standalone="no"?>
<!DOCTYPE svg PUBLIC "-//W3C//DTD SVG 1.1//EN"
 "http://www.w3.org/Graphics/SVG/1.1/DTD/svg11.dtd">
<!-- Generated by graphviz version 12.1.1 (0)
 -->
<!-- Title: dependency&#45;cruiser output Pages: 1 -->
<svg width="177pt" height="114pt"
 viewBox="0.00 0.00 177.00 114.00" xmlns="http://www.w3.org/2000/svg" xmlns:xlink="http://www.w3.org/1999/xlink">
<g id="graph0" class="graph" transform="scale(1 1) rotate(0) translate(4 110)">
<title>dependency&#45;cruiser output</title>
<polygon fill="white" stroke="none" points="-4,4 -4,-110 173,-110 173,4 -4,4"/>
<g id="clust1" class="cluster">
<title>cluster_src</title>
<path fill="#ffffff" stroke="black" stroke-width="2" d="M20,-8C20,-8 149,-8 149,-8 155,-8 161,-14 161,-20 161,-20 161,-86 161,-86 161,-92 155,-98 149,-98 149,-98 20,-98 20,-98 14,-98 8,-92 8,-86 8,-86 8,-20 8,-20 8,-14 14,-8 20,-8"/>
<text text-anchor="middle" x="84.5" y="-85.45" font-family="Helvetica,sans-Serif" font-weight="bold" font-size="9.00">src</text>
</g>
<g id="clust2" class="cluster">
<title>cluster_src/server</title>
<path fill="#ffffff" stroke="black" stroke-width="2" d="M28,-16C28,-16 141,-16 141,-16 147,-16 153,-22 153,-28 153,-28 153,-59 153,-59 153,-65 147,-71 141,-71 141,-71 28,-71 28,-71 22,-71 16,-65 16,-59 16,-59 16,-28 16,-28 16,-22 22,-16 28,-16"/>
<text text-anchor="middle" x="84.5" y="-58.45" font-family="Helvetica,sans-Serif" font-weight="bold" font-size="9.00">server</text>
</g>
<!-- src/server/hello.ts -->
<g id="node1" class="node">
<title>src/server/hello.ts</title>
<g id="a_node1"><a xlink:href="src/server/hello.ts" xlink:title="hello.ts">
<path fill="#ddfeff" stroke="black" d="M71.58,-43.62C71.58,-43.62 30.42,-43.62 30.42,-43.62 27.21,-43.62 24,-40.42 24,-37.21 24,-37.21 24,-30.79 24,-30.79 24,-27.58 27.21,-24.38 30.42,-24.38 30.42,-24.38 71.58,-24.38 71.58,-24.38 74.79,-24.38 78,-27.58 78,-30.79 78,-30.79 78,-37.21 78,-37.21 78,-40.42 74.79,-43.62 71.58,-43.62"/>
<text text-anchor="start" x="34.88" y="-31.07" font-family="Helvetica,sans-Serif" font-size="9.00">hello.ts</text>
</a>
</g>
</g>
<!-- src/server/test.ts -->
<g id="node2" class="node">
<title>src/server/test.ts</title>
<g id="a_node2"><a xlink:href="src/server/test.ts" xlink:title="test.ts">
<path fill="#ddfeff" stroke="black" d="M138.58,-43.62C138.58,-43.62 97.42,-43.62 97.42,-43.62 94.21,-43.62 91,-40.42 91,-37.21 91,-37.21 91,-30.79 91,-30.79 91,-27.58 94.21,-24.38 97.42,-24.38 97.42,-24.38 138.58,-24.38 138.58,-24.38 141.79,-24.38 145,-27.58 145,-30.79 145,-30.79 145,-37.21 145,-37.21 145,-40.42 141.79,-43.62 138.58,-43.62"/>
<text text-anchor="start" x="103.75" y="-31.07" font-family="Helvetica,sans-Serif" font-size="9.00">test.ts</text>
</a>
</g>
</g>
<!-- src/server/hello.ts&#45;&gt;src/server/test.ts -->
<g id="edge1" class="edge">
<title>src/server/hello.ts&#45;&gt;src/server/test.ts</title>
<path fill="none" stroke="#000000" stroke-opacity="0.200000" d="M78.44,-34C80.09,-34 81.77,-34 83.45,-34"/>
<polygon fill="none" stroke="#000000" stroke-opacity="0.200000" points="83.28,-36.1 89.28,-34 83.28,-31.9 83.28,-36.1"/>
</g>
</g>
</svg>
