<?xml version="1.0" encoding="UTF-8" standalone="no"?>
<!DOCTYPE svg PUBLIC "-//W3C//DTD SVG 1.1//EN"
 "http://www.w3.org/Graphics/SVG/1.1/DTD/svg11.dtd">
<!-- Generated by graphviz version 12.1.1 (0)
 -->
<!-- Title: dependency&#45;cruiser output Pages: 1 -->
<svg width="893pt" height="392pt"
 viewBox="0.00 0.00 893.00 392.00" xmlns="http://www.w3.org/2000/svg" xmlns:xlink="http://www.w3.org/1999/xlink">
<g id="graph0" class="graph" transform="scale(1 1) rotate(0) translate(4 388)">
<title>dependency&#45;cruiser output</title>
<polygon fill="white" stroke="none" points="-4,4 -4,-388 889,-388 889,4 -4,4"/>
<g id="clust1" class="cluster">
<title>cluster_src</title>
<path fill="#ffffff" stroke="black" stroke-width="2" d="M20,-8C20,-8 865,-8 865,-8 871,-8 877,-14 877,-20 877,-20 877,-364 877,-364 877,-370 871,-376 865,-376 865,-376 20,-376 20,-376 14,-376 8,-370 8,-364 8,-364 8,-20 8,-20 8,-14 14,-8 20,-8"/>
<text text-anchor="middle" x="442.5" y="-363.45" font-family="Helvetica,sans-Serif" font-weight="bold" font-size="9.00">src</text>
</g>
<g id="clust2" class="cluster">
<title>cluster_src/server</title>
<path fill="#ffffff" stroke="black" stroke-width="2" d="M28,-155C28,-155 354,-155 354,-155 360,-155 366,-161 366,-167 366,-167 366,-233 366,-233 366,-239 360,-245 354,-245 354,-245 28,-245 28,-245 22,-245 16,-239 16,-233 16,-233 16,-167 16,-167 16,-161 22,-155 28,-155"/>
<text text-anchor="middle" x="191" y="-232.45" font-family="Helvetica,sans-Serif" font-weight="bold" font-size="9.00">server</text>
</g>
<g id="clust3" class="cluster">
<title>cluster_src/server/systems</title>
<path fill="#ffffff" stroke="black" stroke-width="2" d="M98,-163C98,-163 214,-163 214,-163 220,-163 226,-169 226,-175 226,-175 226,-206 226,-206 226,-212 220,-218 214,-218 214,-218 98,-218 98,-218 92,-218 86,-212 86,-206 86,-206 86,-175 86,-175 86,-169 92,-163 98,-163"/>
<text text-anchor="middle" x="156" y="-205.45" font-family="Helvetica,sans-Serif" font-weight="bold" font-size="9.00">systems</text>
</g>
<g id="clust4" class="cluster">
<title>cluster_src/sharedStore</title>
<path fill="#ffffff" stroke="black" stroke-width="2" d="M527.12,-225C527.12,-225 601.12,-225 601.12,-225 607.12,-225 613.12,-231 613.12,-237 613.12,-237 613.12,-299 613.12,-299 613.12,-305 607.12,-311 601.12,-311 601.12,-311 527.12,-311 527.12,-311 521.12,-311 515.12,-305 515.12,-299 515.12,-299 515.12,-237 515.12,-237 515.12,-231 521.12,-225 527.12,-225"/>
<text text-anchor="middle" x="564.12" y="-298.45" font-family="Helvetica,sans-Serif" font-weight="bold" font-size="9.00">sharedStore</text>
</g>
<g id="clust5" class="cluster">
<title>cluster_src/systems</title>
<path fill="#ffffff" stroke="black" stroke-width="2" d="M386,-50C386,-50 606.5,-50 606.5,-50 612.5,-50 618.5,-56 618.5,-62 618.5,-62 618.5,-162 618.5,-162 618.5,-168 612.5,-174 606.5,-174 606.5,-174 386,-174 386,-174 380,-174 374,-168 374,-162 374,-162 374,-62 374,-62 374,-56 380,-50 386,-50"/>
<text text-anchor="middle" x="496.25" y="-161.45" font-family="Helvetica,sans-Serif" font-weight="bold" font-size="9.00">systems</text>
</g>
<g id="clust6" class="cluster">
<title>cluster_src/systems/game</title>
<path fill="#ffffff" stroke="black" stroke-width="2" d="M456,-64C456,-64 598.5,-64 598.5,-64 604.5,-64 610.5,-70 610.5,-76 610.5,-76 610.5,-107 610.5,-107 610.5,-113 604.5,-119 598.5,-119 598.5,-119 456,-119 456,-119 450,-119 444,-113 444,-107 444,-107 444,-76 444,-76 444,-70 450,-64 456,-64"/>
<text text-anchor="middle" x="527.25" y="-106.45" font-family="Helvetica,sans-Serif" font-weight="bold" font-size="9.00">game</text>
</g>
<g id="clust7" class="cluster">
<title>cluster_src/utils</title>
<path fill="#ffffff" stroke="black" stroke-width="2" d="M638.5,-85C638.5,-85 857,-85 857,-85 863,-85 869,-91 869,-97 869,-97 869,-190 869,-190 869,-196 863,-202 857,-202 857,-202 638.5,-202 638.5,-202 632.5,-202 626.5,-196 626.5,-190 626.5,-190 626.5,-97 626.5,-97 626.5,-91 632.5,-85 638.5,-85"/>
<text text-anchor="middle" x="747.75" y="-189.45" font-family="Helvetica,sans-Serif" font-weight="bold" font-size="9.00">utils</text>
</g>
<!-- src/api.ts -->
<g id="node1" class="node">
<title>src/api.ts</title>
<g id="a_node1"><a xlink:href="src/api.ts" xlink:title="api.ts">
<path fill="#ddfeff" stroke="black" d="M499.58,-290.62C499.58,-290.62 458.42,-290.62 458.42,-290.62 455.21,-290.62 452,-287.42 452,-284.21 452,-284.21 452,-277.79 452,-277.79 452,-274.58 455.21,-271.38 458.42,-271.38 458.42,-271.38 499.58,-271.38 499.58,-271.38 502.79,-271.38 506,-274.58 506,-277.79 506,-277.79 506,-284.21 506,-284.21 506,-287.42 502.79,-290.62 499.58,-290.62"/>
<text text-anchor="start" x="466.62" y="-278.07" font-family="Helvetica,sans-Serif" font-size="9.00">api.ts</text>
</a>
</g>
</g>
<!-- src/config.ts -->
<g id="node2" class="node">
<title>src/config.ts</title>
<g id="a_node2"><a xlink:href="src/config.ts" xlink:title="config.ts">
<path fill="#ddfeff" stroke="black" d="M701.83,-336.62C701.83,-336.62 659.67,-336.62 659.67,-336.62 656.46,-336.62 653.25,-333.42 653.25,-330.21 653.25,-330.21 653.25,-323.79 653.25,-323.79 653.25,-320.58 656.46,-317.38 659.67,-317.38 659.67,-317.38 701.83,-317.38 701.83,-317.38 705.04,-317.38 708.25,-320.58 708.25,-323.79 708.25,-323.79 708.25,-330.21 708.25,-330.21 708.25,-333.42 705.04,-336.62 701.83,-336.62"/>
<text text-anchor="start" x="661.25" y="-324.07" font-family="Helvetica,sans-Serif" font-size="9.00">config.ts</text>
</a>
</g>
</g>
<!-- src/api.ts&#45;&gt;src/config.ts -->
<g id="edge1" class="edge">
<title>src/api.ts&#45;&gt;src/config.ts</title>
<path fill="none" stroke="#000000" stroke-width="2" stroke-opacity="0.200000" d="M484.84,-290.99C490.49,-301.39 500.9,-317.09 515.12,-324 555.84,-343.77 609.18,-340.23 643.94,-334.65"/>
<polygon fill="#000000" fill-opacity="0.200000" stroke="#000000" stroke-width="2" stroke-opacity="0.200000" points="644.25,-336.73 649.81,-333.64 643.54,-332.59 644.25,-336.73"/>
</g>
<!-- src/systems/errors.ts -->
<g id="node3" class="node">
<title>src/systems/errors.ts</title>
<g id="a_node3"><a xlink:href="src/systems/errors.ts" xlink:title="errors.ts">
<path fill="#ddfeff" stroke="black" d="M429.58,-146.62C429.58,-146.62 388.42,-146.62 388.42,-146.62 385.21,-146.62 382,-143.42 382,-140.21 382,-140.21 382,-133.79 382,-133.79 382,-130.58 385.21,-127.38 388.42,-127.38 388.42,-127.38 429.58,-127.38 429.58,-127.38 432.79,-127.38 436,-130.58 436,-133.79 436,-133.79 436,-140.21 436,-140.21 436,-143.42 432.79,-146.62 429.58,-146.62"/>
<text text-anchor="start" x="390.25" y="-134.07" font-family="Helvetica,sans-Serif" font-size="9.00">errors.ts</text>
</a>
</g>
</g>
<!-- src/api.ts&#45;&gt;src/systems/errors.ts -->
<g id="edge2" class="edge">
<title>src/api.ts&#45;&gt;src/systems/errors.ts</title>
<path fill="none" stroke="#000000" stroke-width="2" stroke-opacity="0.200000" d="M454.16,-270.95C450.34,-268.48 446.75,-265.52 444,-262 419.32,-230.42 412.52,-182.22 410.67,-155.85"/>
<polygon fill="#000000" fill-opacity="0.200000" stroke="#000000" stroke-width="2" stroke-opacity="0.200000" points="412.77,-155.8 410.35,-149.92 408.58,-156.03 412.77,-155.8"/>
</g>
<!-- src/env.ts -->
<g id="node4" class="node">
<title>src/env.ts</title>
<g id="a_node4"><a xlink:href="src/env.ts" xlink:title="env.ts">
<path fill="#ddfeff" stroke="black" d="M176.58,-272.62C176.58,-272.62 135.42,-272.62 135.42,-272.62 132.21,-272.62 129,-269.42 129,-266.21 129,-266.21 129,-259.79 129,-259.79 129,-256.58 132.21,-253.38 135.42,-253.38 135.42,-253.38 176.58,-253.38 176.58,-253.38 179.79,-253.38 183,-256.58 183,-259.79 183,-259.79 183,-266.21 183,-266.21 183,-269.42 179.79,-272.62 176.58,-272.62"/>
<text text-anchor="start" x="142.5" y="-260.07" font-family="Helvetica,sans-Serif" font-size="9.00">env.ts</text>
</a>
</g>
</g>
<!-- src/server/server.ts -->
<g id="node5" class="node">
<title>src/server/server.ts</title>
<g id="a_node5"><a xlink:href="src/server/server.ts" xlink:title="server.ts">
<path fill="#ddfeff" stroke="black" d="M71.58,-203.62C71.58,-203.62 30.42,-203.62 30.42,-203.62 27.21,-203.62 24,-200.42 24,-197.21 24,-197.21 24,-190.79 24,-190.79 24,-187.58 27.21,-184.38 30.42,-184.38 30.42,-184.38 71.58,-184.38 71.58,-184.38 74.79,-184.38 78,-187.58 78,-190.79 78,-190.79 78,-197.21 78,-197.21 78,-200.42 74.79,-203.62 71.58,-203.62"/>
<text text-anchor="start" x="32.25" y="-191.07" font-family="Helvetica,sans-Serif" font-size="9.00">server.ts</text>
</a>
</g>
</g>
<!-- src/server/server.ts&#45;&gt;src/env.ts -->
<g id="edge3" class="edge">
<title>src/server/server.ts&#45;&gt;src/env.ts</title>
<path fill="none" stroke="#000000" stroke-width="2" stroke-opacity="0.200000" d="M63.99,-204.12C70.38,-209.36 78.46,-215.74 86,-221 99.91,-230.7 116.07,-240.6 129.25,-248.36"/>
<polygon fill="#000000" fill-opacity="0.200000" stroke="#000000" stroke-width="2" stroke-opacity="0.200000" points="128.17,-250.16 134.42,-251.36 130.29,-246.53 128.17,-250.16"/>
</g>
<!-- src/server/systems/sharedStoreNetworks.ts -->
<g id="node6" class="node">
<title>src/server/systems/sharedStoreNetworks.ts</title>
<g id="a_node6"><a xlink:href="src/server/systems/sharedStoreNetworks.ts" xlink:title="sharedStoreNetworks.ts">
<path fill="#ddfeff" stroke="black" d="M211.58,-190.62C211.58,-190.62 100.42,-190.62 100.42,-190.62 97.21,-190.62 94,-187.42 94,-184.21 94,-184.21 94,-177.79 94,-177.79 94,-174.58 97.21,-171.38 100.42,-171.38 100.42,-171.38 211.58,-171.38 211.58,-171.38 214.79,-171.38 218,-174.58 218,-177.79 218,-177.79 218,-184.21 218,-184.21 218,-187.42 214.79,-190.62 211.58,-190.62"/>
<text text-anchor="start" x="102" y="-178.07" font-family="Helvetica,sans-Serif" font-size="9.00">sharedStoreNetworks.ts</text>
</a>
</g>
</g>
<!-- src/server/server.ts&#45;&gt;src/server/systems/sharedStoreNetworks.ts -->
<g id="edge4" class="edge">
<title>src/server/server.ts&#45;&gt;src/server/systems/sharedStoreNetworks.ts</title>
<path fill="none" stroke="#000000" stroke-width="2" stroke-opacity="0.200000" d="M78.26,-190.69C80.55,-190.4 82.93,-190.1 85.37,-189.79"/>
<polygon fill="#000000" fill-opacity="0.200000" stroke="#000000" stroke-width="2" stroke-opacity="0.200000" points="85.18,-191.93 90.87,-189.09 84.66,-187.76 85.18,-191.93"/>
</g>
<!-- src/server/serverSideRoomLogic.ts -->
<g id="node7" class="node">
<title>src/server/serverSideRoomLogic.ts</title>
<g id="a_node7"><a xlink:href="src/server/serverSideRoomLogic.ts" xlink:title="serverSideRoomLogic.ts">
<path fill="#ddfeff" stroke="black" d="M351.58,-190.62C351.58,-190.62 240.42,-190.62 240.42,-190.62 237.21,-190.62 234,-187.42 234,-184.21 234,-184.21 234,-177.79 234,-177.79 234,-174.58 237.21,-171.38 240.42,-171.38 240.42,-171.38 351.58,-171.38 351.58,-171.38 354.79,-171.38 358,-174.58 358,-177.79 358,-177.79 358,-184.21 358,-184.21 358,-187.42 354.79,-190.62 351.58,-190.62"/>
<text text-anchor="start" x="242" y="-178.07" font-family="Helvetica,sans-Serif" font-size="9.00">serverSideRoomLogic.ts</text>
</a>
</g>
</g>
<!-- src/server/systems/sharedStoreNetworks.ts&#45;&gt;src/server/serverSideRoomLogic.ts -->
<g id="edge9" class="edge">
<title>src/server/systems/sharedStoreNetworks.ts&#45;&gt;src/server/serverSideRoomLogic.ts</title>
<path fill="none" stroke="#000000" stroke-width="2" stroke-opacity="0.200000" d="M218.33,-181C220.38,-181 222.44,-181 224.49,-181"/>
<polygon fill="#000000" fill-opacity="0.200000" stroke="#000000" stroke-width="2" stroke-opacity="0.200000" points="224.48,-183.1 230.48,-181 224.48,-178.9 224.48,-183.1"/>
</g>
<!-- src/sharedStore/sharedStore.ts -->
<g id="node8" class="node">
<title>src/sharedStore/sharedStore.ts</title>
<g id="a_node8"><a xlink:href="src/sharedStore/sharedStore.ts" xlink:title="sharedStore.ts">
<path fill="#ddfeff" stroke="black" d="M598.71,-283.62C598.71,-283.62 529.54,-283.62 529.54,-283.62 526.33,-283.62 523.12,-280.42 523.12,-277.21 523.12,-277.21 523.12,-270.79 523.12,-270.79 523.12,-267.58 526.33,-264.38 529.54,-264.38 529.54,-264.38 598.71,-264.38 598.71,-264.38 601.92,-264.38 605.12,-267.58 605.12,-270.79 605.12,-270.79 605.12,-277.21 605.12,-277.21 605.12,-280.42 601.92,-283.62 598.71,-283.62"/>
<text text-anchor="start" x="531.12" y="-271.07" font-family="Helvetica,sans-Serif" font-size="9.00">sharedStore.ts</text>
</a>
</g>
</g>
<!-- src/server/systems/sharedStoreNetworks.ts&#45;&gt;src/sharedStore/sharedStore.ts -->
<g id="edge10" class="edge">
<title>src/server/systems/sharedStoreNetworks.ts&#45;&gt;src/sharedStore/sharedStore.ts</title>
<path fill="none" stroke="#000000" stroke-width="2" stroke-opacity="0.200000" d="M218.4,-188.82C221.16,-190.57 223.73,-192.61 226,-195 242.42,-212.26 218.23,-230.14 234,-248 298.17,-320.67 347.96,-293.76 444,-307 471.3,-310.76 482.68,-321.67 506,-307 513.93,-302.01 507.98,-294.06 515.12,-288 515.27,-287.87 515.42,-287.75 515.58,-287.62"/>
<polygon fill="#000000" fill-opacity="0.200000" stroke="#000000" stroke-width="2" stroke-opacity="0.200000" points="516.59,-289.47 520.45,-284.43 514.28,-285.96 516.59,-289.47"/>
</g>
<!-- src/utils/ids.ts -->
<g id="node11" class="node">
<title>src/utils/ids.ts</title>
<g id="a_node11"><a xlink:href="src/utils/ids.ts" xlink:title="ids.ts">
<path fill="#ddfeff" stroke="black" d="M701.33,-112.62C701.33,-112.62 660.17,-112.62 660.17,-112.62 656.96,-112.62 653.75,-109.42 653.75,-106.21 653.75,-106.21 653.75,-99.79 653.75,-99.79 653.75,-96.58 656.96,-93.38 660.17,-93.38 660.17,-93.38 701.33,-93.38 701.33,-93.38 704.54,-93.38 707.75,-96.58 707.75,-99.79 707.75,-99.79 707.75,-106.21 707.75,-106.21 707.75,-109.42 704.54,-112.62 701.33,-112.62"/>
<text text-anchor="start" x="668.75" y="-100.08" font-family="Helvetica,sans-Serif" font-size="9.00">ids.ts</text>
</a>
</g>
</g>
<!-- src/server/systems/sharedStoreNetworks.ts&#45;&gt;src/utils/ids.ts -->
<g id="edge11" class="edge">
<title>src/server/systems/sharedStoreNetworks.ts&#45;&gt;src/utils/ids.ts</title>
<path fill="none" stroke="#000000" stroke-width="2" stroke-opacity="0.200000" d="M164.45,-171.23C192.3,-135.93 294.52,-17 408,-17 408,-17 408,-17 480,-17 544.59,-17 560.47,-32.65 618.5,-61 633.52,-68.33 649.03,-79.01 660.68,-87.76"/>
<polygon fill="#000000" fill-opacity="0.200000" stroke="#000000" stroke-width="2" stroke-opacity="0.200000" points="659.3,-89.35 665.34,-91.33 661.86,-86.02 659.3,-89.35"/>
</g>
<!-- src/server/serverSideRoomLogic.ts&#45;&gt;src/config.ts -->
<g id="edge5" class="edge">
<title>src/server/serverSideRoomLogic.ts&#45;&gt;src/config.ts</title>
<path fill="none" stroke="#000000" stroke-width="2" stroke-opacity="0.200000" d="M302.21,-190.96C313.03,-210.77 339.81,-255.38 374,-281 463.13,-347.8 507.41,-344.12 618.5,-336 626.84,-335.39 635.78,-334.32 644.17,-333.12"/>
<polygon fill="#000000" fill-opacity="0.200000" stroke="#000000" stroke-width="2" stroke-opacity="0.200000" points="644.4,-335.21 650.02,-332.24 643.77,-331.06 644.4,-335.21"/>
</g>
<!-- src/server/serverSideRoomLogic.ts&#45;&gt;src/sharedStore/sharedStore.ts -->
<g id="edge6" class="edge">
<title>src/server/serverSideRoomLogic.ts&#45;&gt;src/sharedStore/sharedStore.ts</title>
<path fill="none" stroke="#000000" stroke-width="2" stroke-opacity="0.200000" d="M304.94,-190.89C325.07,-215.07 381.02,-276.85 444,-299 469.99,-308.14 481.06,-310.72 506,-299 510.4,-296.93 510.3,-293.63 515.93,-288.68"/>
<polygon fill="#000000" fill-opacity="0.200000" stroke="#000000" stroke-width="2" stroke-opacity="0.200000" points="516.85,-290.6 520.54,-285.42 514.43,-287.17 516.85,-290.6"/>
</g>
<!-- src/systems/game/gameLogic.ts -->
<g id="node9" class="node">
<title>src/systems/game/gameLogic.ts</title>
<g id="a_node9"><a xlink:href="src/systems/game/gameLogic.ts" xlink:title="gameLogic.ts">
<path fill="#ddfeff" stroke="black" d="M596.08,-91.62C596.08,-91.62 532.17,-91.62 532.17,-91.62 528.96,-91.62 525.75,-88.42 525.75,-85.21 525.75,-85.21 525.75,-78.79 525.75,-78.79 525.75,-75.58 528.96,-72.38 532.17,-72.38 532.17,-72.38 596.08,-72.38 596.08,-72.38 599.29,-72.38 602.5,-75.58 602.5,-78.79 602.5,-78.79 602.5,-85.21 602.5,-85.21 602.5,-88.42 599.29,-91.62 596.08,-91.62"/>
<text text-anchor="start" x="533.75" y="-79.08" font-family="Helvetica,sans-Serif" font-size="9.00">gameLogic.ts</text>
</a>
</g>
</g>
<!-- src/server/serverSideRoomLogic.ts&#45;&gt;src/systems/game/gameLogic.ts -->
<g id="edge7" class="edge">
<title>src/server/serverSideRoomLogic.ts&#45;&gt;src/systems/game/gameLogic.ts</title>
<path fill="none" stroke="#000000" stroke-width="2" stroke-opacity="0.200000" d="M299.1,-171.21C305.25,-145.26 325.93,-74.82 374,-47 424.78,-17.61 449.54,-31.08 506,-47 519.87,-50.91 533.7,-59.24 544.28,-66.79"/>
<polygon fill="#000000" fill-opacity="0.200000" stroke="#000000" stroke-width="2" stroke-opacity="0.200000" points="542.87,-68.36 548.93,-70.26 545.38,-64.99 542.87,-68.36"/>
</g>
<!-- src/systems/room.ts -->
<g id="node10" class="node">
<title>src/systems/room.ts</title>
<g id="a_node10"><a xlink:href="src/systems/room.ts" xlink:title="room.ts">
<path fill="#ddfeff" stroke="black" d="M429.58,-115.62C429.58,-115.62 388.42,-115.62 388.42,-115.62 385.21,-115.62 382,-112.42 382,-109.21 382,-109.21 382,-102.79 382,-102.79 382,-99.58 385.21,-96.38 388.42,-96.38 388.42,-96.38 429.58,-96.38 429.58,-96.38 432.79,-96.38 436,-99.58 436,-102.79 436,-102.79 436,-109.21 436,-109.21 436,-112.42 432.79,-115.62 429.58,-115.62"/>
<text text-anchor="start" x="391.75" y="-103.08" font-family="Helvetica,sans-Serif" font-size="9.00">room.ts</text>
</a>
</g>
</g>
<!-- src/server/serverSideRoomLogic.ts&#45;&gt;src/systems/room.ts -->
<g id="edge8" class="edge">
<title>src/server/serverSideRoomLogic.ts&#45;&gt;src/systems/room.ts</title>
<path fill="none" stroke="#000000" stroke-width="2" stroke-opacity="0.200000" d="M308.1,-170.91C322.52,-158.15 348.83,-136.04 374,-121 374.45,-120.73 374.91,-120.46 375.37,-120.2"/>
<polygon fill="#000000" fill-opacity="0.200000" stroke="#000000" stroke-width="2" stroke-opacity="0.200000" points="376.11,-122.18 380.45,-117.53 374.16,-118.46 376.11,-122.18"/>
</g>
<!-- src/systems/room.ts&#45;&gt;src/api.ts -->
<g id="edge24" class="edge">
<title>src/systems/room.ts&#45;&gt;src/api.ts</title>
<path fill="none" stroke="#000000" stroke-width="2" stroke-opacity="0.200000" d="M431.49,-115.81C433.24,-117.32 434.8,-119.05 436,-121 452.46,-147.72 427.36,-235.39 444,-262 444.69,-263.11 445.48,-264.16 446.34,-265.16"/>
<polygon fill="#000000" fill-opacity="0.200000" stroke="#000000" stroke-width="2" stroke-opacity="0.200000" points="444.7,-266.51 450.58,-268.92 447.48,-263.37 444.7,-266.51"/>
</g>
<!-- src/systems/room.ts&#45;&gt;src/config.ts -->
<g id="edge25" class="edge">
<title>src/systems/room.ts&#45;&gt;src/config.ts</title>
<path fill="none" stroke="#000000" stroke-width="2" stroke-opacity="0.200000" d="M431.47,-115.82C433.23,-117.33 434.79,-119.05 436,-121 450.57,-144.45 427.04,-223.21 444,-245 461.79,-267.84 486.88,-243.26 506,-265 520.63,-281.63 498.66,-299.18 515.12,-314 519.85,-318.25 596.9,-322.84 643.89,-325.27"/>
<polygon fill="#000000" fill-opacity="0.200000" stroke="#000000" stroke-width="2" stroke-opacity="0.200000" points="643.74,-327.36 649.84,-325.57 643.95,-323.17 643.74,-327.36"/>
</g>
<!-- src/systems/room.ts&#45;&gt;src/sharedStore/sharedStore.ts -->
<g id="edge26" class="edge">
<title>src/systems/room.ts&#45;&gt;src/sharedStore/sharedStore.ts</title>
<path fill="none" stroke="#000000" stroke-width="2" stroke-opacity="0.200000" d="M431.46,-115.82C433.22,-117.34 434.78,-119.06 436,-121 449.24,-142.15 428.03,-213.83 444,-233 462.22,-254.86 481.62,-234.32 506,-249 511.15,-252.1 510.05,-255.77 515.12,-259 515.68,-259.35 516.24,-259.7 516.81,-260.03"/>
<polygon fill="#000000" fill-opacity="0.200000" stroke="#000000" stroke-width="2" stroke-opacity="0.200000" points="515.57,-261.76 521.87,-262.61 517.48,-258.02 515.57,-261.76"/>
</g>
<!-- src/systems/room.ts&#45;&gt;src/systems/game/gameLogic.ts -->
<g id="edge23" class="edge">
<title>src/systems/room.ts&#45;&gt;src/systems/game/gameLogic.ts</title>
<path fill="none" stroke="#000000" stroke-width="2" stroke-opacity="0.200000" d="M415.17,-95.93C420.79,-86.22 430.76,-72.12 444,-66 471.96,-53.07 507.27,-60.37 532.17,-68.87"/>
<polygon fill="#000000" fill-opacity="0.200000" stroke="#000000" stroke-width="2" stroke-opacity="0.200000" points="531.31,-70.79 537.67,-70.86 532.74,-66.84 531.31,-70.79"/>
</g>
<!-- src/sharedStore/wsTransport.ts -->
<g id="node12" class="node">
<title>src/sharedStore/wsTransport.ts</title>
<g id="a_node12"><a xlink:href="src/sharedStore/wsTransport.ts" xlink:title="wsTransport.ts">
<path fill="#ddfeff" stroke="black" d="M598.33,-252.62C598.33,-252.62 529.92,-252.62 529.92,-252.62 526.71,-252.62 523.5,-249.42 523.5,-246.21 523.5,-246.21 523.5,-239.79 523.5,-239.79 523.5,-236.58 526.71,-233.38 529.92,-233.38 529.92,-233.38 598.33,-233.38 598.33,-233.38 601.54,-233.38 604.75,-236.58 604.75,-239.79 604.75,-239.79 604.75,-246.21 604.75,-246.21 604.75,-249.42 601.54,-252.62 598.33,-252.62"/>
<text text-anchor="start" x="531.5" y="-240.07" font-family="Helvetica,sans-Serif" font-size="9.00">wsTransport.ts</text>
</a>
</g>
</g>
<!-- src/systems/room.ts&#45;&gt;src/sharedStore/wsTransport.ts -->
<g id="edge27" class="edge">
<title>src/systems/room.ts&#45;&gt;src/sharedStore/wsTransport.ts</title>
<path fill="none" stroke="#000000" stroke-width="2" stroke-opacity="0.200000" d="M431.44,-115.84C433.2,-117.35 434.77,-119.06 436,-121 447.8,-139.65 429.28,-203.56 444,-220 453.46,-230.56 485.89,-236.37 514.53,-239.51"/>
<polygon fill="#000000" fill-opacity="0.200000" stroke="#000000" stroke-width="2" stroke-opacity="0.200000" points="514.07,-241.58 520.26,-240.1 514.5,-237.4 514.07,-241.58"/>
</g>
<!-- src/utils/solid.ts -->
<g id="node15" class="node">
<title>src/utils/solid.ts</title>
<g id="a_node15"><a xlink:href="src/utils/solid.ts" xlink:title="solid.ts">
<path fill="#ddfeff" stroke="black" d="M787.58,-158.62C787.58,-158.62 746.42,-158.62 746.42,-158.62 743.21,-158.62 740,-155.42 740,-152.21 740,-152.21 740,-145.79 740,-145.79 740,-142.58 743.21,-139.38 746.42,-139.38 746.42,-139.38 787.58,-139.38 787.58,-139.38 790.79,-139.38 794,-142.58 794,-145.79 794,-145.79 794,-152.21 794,-152.21 794,-155.42 790.79,-158.62 787.58,-158.62"/>
<text text-anchor="start" x="751.25" y="-146.07" font-family="Helvetica,sans-Serif" font-size="9.00">solid.ts</text>
</a>
</g>
</g>
<!-- src/systems/room.ts&#45;&gt;src/utils/solid.ts -->
<g id="edge29" class="edge">
<title>src/systems/room.ts&#45;&gt;src/utils/solid.ts</title>
<path fill="none" stroke="#000000" stroke-width="2" stroke-opacity="0.200000" d="M428.46,-116.05C431.05,-117.63 433.63,-119.3 436,-121 473.97,-148.12 471.58,-173.23 515.12,-190 603.01,-223.84 640.9,-230.15 727,-192 738.81,-186.77 748.56,-176 755.37,-166.55"/>
<polygon fill="#000000" fill-opacity="0.200000" stroke="#000000" stroke-width="2" stroke-opacity="0.200000" points="757.09,-167.75 758.68,-161.59 753.6,-165.41 757.09,-167.75"/>
</g>
<!-- src/systems/game/game.ts -->
<g id="node16" class="node">
<title>src/systems/game/game.ts</title>
<g id="a_node16"><a xlink:href="src/systems/game/game.ts" xlink:title="game.ts">
<path fill="#ddfeff" stroke="black" d="M499.58,-91.62C499.58,-91.62 458.42,-91.62 458.42,-91.62 455.21,-91.62 452,-88.42 452,-85.21 452,-85.21 452,-78.79 452,-78.79 452,-75.58 455.21,-72.38 458.42,-72.38 458.42,-72.38 499.58,-72.38 499.58,-72.38 502.79,-72.38 506,-75.58 506,-78.79 506,-78.79 506,-85.21 506,-85.21 506,-88.42 502.79,-91.62 499.58,-91.62"/>
<text text-anchor="start" x="460.62" y="-79.08" font-family="Helvetica,sans-Serif" font-size="9.00">game.ts</text>
</a>
</g>
</g>
<!-- src/systems/room.ts&#45;&gt;src/systems/game/game.ts -->
<g id="edge22" class="edge">
<title>src/systems/room.ts&#45;&gt;src/systems/game/game.ts</title>
<path fill="none" stroke="#000000" stroke-width="2" stroke-opacity="0.200000" d="M436.49,-96.65C438.86,-95.81 441.29,-94.96 443.72,-94.1"/>
<polygon fill="#000000" fill-opacity="0.200000" stroke="#000000" stroke-width="2" stroke-opacity="0.200000" points="444.11,-96.19 449.07,-92.21 442.71,-92.23 444.11,-96.19"/>
</g>
<!-- src/utils/obj.ts -->
<g id="node17" class="node">
<title>src/utils/obj.ts</title>
<g id="a_node17"><a xlink:href="src/utils/obj.ts" xlink:title="obj.ts">
<path fill="#ddfeff" stroke="black" d="M854.58,-158.62C854.58,-158.62 813.42,-158.62 813.42,-158.62 810.21,-158.62 807,-155.42 807,-152.21 807,-152.21 807,-145.79 807,-145.79 807,-142.58 810.21,-139.38 813.42,-139.38 813.42,-139.38 854.58,-139.38 854.58,-139.38 857.79,-139.38 861,-142.58 861,-145.79 861,-145.79 861,-152.21 861,-152.21 861,-155.42 857.79,-158.62 854.58,-158.62"/>
<text text-anchor="start" x="821.62" y="-146.07" font-family="Helvetica,sans-Serif" font-size="9.00">obj.ts</text>
</a>
</g>
</g>
<!-- src/systems/room.ts&#45;&gt;src/utils/obj.ts -->
<g id="edge28" class="edge">
<title>src/systems/room.ts&#45;&gt;src/utils/obj.ts</title>
<path fill="none" stroke="#000000" stroke-width="2" stroke-opacity="0.200000" d="M413.73,-95.93C418.68,-84.14 428.63,-65.07 444,-56 489.8,-28.99 509.96,-45 563.12,-45 563.12,-45 563.12,-45 681.75,-45 742.56,-45 796.76,-102.79 820.41,-132.21"/>
<polygon fill="#000000" fill-opacity="0.200000" stroke="#000000" stroke-width="2" stroke-opacity="0.200000" points="818.53,-133.22 823.88,-136.65 821.83,-130.63 818.53,-133.22"/>
</g>
<!-- src/sharedStore/wsTransport.ts&#45;&gt;src/config.ts -->
<g id="edge12" class="edge">
<title>src/sharedStore/wsTransport.ts&#45;&gt;src/config.ts</title>
<path fill="none" stroke="#000000" stroke-width="2" stroke-opacity="0.200000" d="M604.98,-251.44C609.72,-253.23 614.34,-255.39 618.5,-258 639.73,-271.3 657.89,-294.1 668.79,-309.83"/>
<polygon fill="#000000" fill-opacity="0.200000" stroke="#000000" stroke-width="2" stroke-opacity="0.200000" points="666.77,-310.59 671.86,-314.4 670.26,-308.25 666.77,-310.59"/>
</g>
<!-- src/systems/debugSystem.ts -->
<g id="node13" class="node">
<title>src/systems/debugSystem.ts</title>
<g id="a_node13"><a xlink:href="src/systems/debugSystem.ts" xlink:title="debugSystem.ts">
<path fill="#ddfeff" stroke="black" d="M602.83,-146.62C602.83,-146.62 525.42,-146.62 525.42,-146.62 522.21,-146.62 519,-143.42 519,-140.21 519,-140.21 519,-133.79 519,-133.79 519,-130.58 522.21,-127.38 525.42,-127.38 525.42,-127.38 602.83,-127.38 602.83,-127.38 606.04,-127.38 609.25,-130.58 609.25,-133.79 609.25,-133.79 609.25,-140.21 609.25,-140.21 609.25,-143.42 606.04,-146.62 602.83,-146.62"/>
<text text-anchor="start" x="527" y="-134.07" font-family="Helvetica,sans-Serif" font-size="9.00">debugSystem.ts</text>
</a>
</g>
</g>
<!-- src/utils/makePersisted.ts -->
<g id="node14" class="node">
<title>src/utils/makePersisted.ts</title>
<g id="a_node14"><a xlink:href="src/utils/makePersisted.ts" xlink:title="makePersisted.ts">
<path fill="#ddfeff" stroke="black" d="M720.58,-143.62C720.58,-143.62 640.92,-143.62 640.92,-143.62 637.71,-143.62 634.5,-140.42 634.5,-137.21 634.5,-137.21 634.5,-130.79 634.5,-130.79 634.5,-127.58 637.71,-124.38 640.92,-124.38 640.92,-124.38 720.58,-124.38 720.58,-124.38 723.79,-124.38 727,-127.58 727,-130.79 727,-130.79 727,-137.21 727,-137.21 727,-140.42 723.79,-143.62 720.58,-143.62"/>
<text text-anchor="start" x="642.5" y="-131.07" font-family="Helvetica,sans-Serif" font-size="9.00">makePersisted.ts</text>
</a>
</g>
</g>
<!-- src/systems/debugSystem.ts&#45;&gt;src/utils/makePersisted.ts -->
<g id="edge13" class="edge">
<title>src/systems/debugSystem.ts&#45;&gt;src/utils/makePersisted.ts</title>
<path fill="none" stroke="#000000" stroke-width="2" stroke-opacity="0.200000" d="M609.44,-135.84C614.61,-135.7 619.92,-135.57 625.21,-135.43"/>
<polygon fill="#000000" fill-opacity="0.200000" stroke="#000000" stroke-width="2" stroke-opacity="0.200000" points="625.07,-137.53 631.01,-135.28 624.96,-133.33 625.07,-137.53"/>
</g>
<!-- src/systems/debugSystem.ts&#45;&gt;src/utils/solid.ts -->
<g id="edge14" class="edge">
<title>src/systems/debugSystem.ts&#45;&gt;src/utils/solid.ts</title>
<path fill="none" stroke="#000000" stroke-width="2" stroke-opacity="0.200000" d="M609.58,-128.8C612.87,-126.96 615.91,-124.72 618.5,-122 629.5,-110.44 614.02,-96.95 626.5,-87 661.43,-59.16 687.9,-65.4 727,-87 743.78,-96.27 754.32,-116.11 760.15,-130.87"/>
<polygon fill="#000000" fill-opacity="0.200000" stroke="#000000" stroke-width="2" stroke-opacity="0.200000" points="758.14,-131.48 762.16,-136.41 762.09,-130.06 758.14,-131.48"/>
</g>
<!-- src/utils/makePersisted.ts&#45;&gt;src/utils/solid.ts -->
<g id="edge30" class="edge">
<title>src/utils/makePersisted.ts&#45;&gt;src/utils/solid.ts</title>
<path fill="none" stroke="#000000" stroke-width="2" stroke-opacity="0.200000" d="M727.33,-142.11C728.5,-142.32 729.68,-142.53 730.85,-142.74"/>
<polygon fill="#000000" fill-opacity="0.200000" stroke="#000000" stroke-width="2" stroke-opacity="0.200000" points="730.33,-144.78 736.6,-143.77 731.07,-140.65 730.33,-144.78"/>
</g>
<!-- src/utils/solid.ts&#45;&gt;src/utils/obj.ts -->
<g id="edge31" class="edge">
<title>src/utils/solid.ts&#45;&gt;src/utils/obj.ts</title>
<path fill="none" stroke="#000000" stroke-width="2" stroke-opacity="0.200000" d="M794.44,-149C795.58,-149 796.74,-149 797.9,-149"/>
<polygon fill="#000000" fill-opacity="0.200000" stroke="#000000" stroke-width="2" stroke-opacity="0.200000" points="797.77,-151.1 803.77,-149 797.77,-146.9 797.77,-151.1"/>
</g>
<!-- src/systems/game/game.ts&#45;&gt;src/sharedStore/sharedStore.ts -->
<g id="edge16" class="edge">
<title>src/systems/game/game.ts&#45;&gt;src/sharedStore/sharedStore.ts</title>
<path fill="none" stroke="#000000" stroke-width="2" stroke-opacity="0.200000" d="M481.34,-91.7C486.27,-126.88 503.71,-246.3 515.12,-259 515.4,-259.31 515.69,-259.61 515.97,-259.91"/>
<polygon fill="#000000" fill-opacity="0.200000" stroke="#000000" stroke-width="2" stroke-opacity="0.200000" points="514.41,-261.35 520.42,-263.4 517,-258.04 514.41,-261.35"/>
</g>
<!-- src/systems/game/game.ts&#45;&gt;src/systems/game/gameLogic.ts -->
<g id="edge15" class="edge">
<title>src/systems/game/game.ts&#45;&gt;src/systems/game/gameLogic.ts</title>
<path fill="none" stroke="#000000" stroke-width="2" stroke-opacity="0.200000" d="M506.3,-82C509.63,-82 513.11,-82 516.64,-82"/>
<polygon fill="#000000" fill-opacity="0.200000" stroke="#000000" stroke-width="2" stroke-opacity="0.200000" points="516.43,-84.1 522.43,-82 516.43,-79.9 516.43,-84.1"/>
</g>
<!-- src/systems/game/game.ts&#45;&gt;src/utils/ids.ts -->
<g id="edge18" class="edge">
<title>src/systems/game/game.ts&#45;&gt;src/utils/ids.ts</title>
<path fill="none" stroke="#000000" stroke-width="2" stroke-opacity="0.200000" d="M481.43,-92C484.38,-108.5 492.86,-141 515.12,-155 534.57,-167.23 600.62,-169.43 618.5,-155 631.59,-144.43 614.98,-130.26 626.5,-118 631.4,-112.78 637.97,-109.33 644.8,-107.06"/>
<polygon fill="#000000" fill-opacity="0.200000" stroke="#000000" stroke-width="2" stroke-opacity="0.200000" points="645.31,-109.1 650.58,-105.54 644.25,-105.04 645.31,-109.1"/>
</g>
<!-- src/systems/game/game.ts&#45;&gt;src/systems/debugSystem.ts -->
<g id="edge17" class="edge">
<title>src/systems/game/game.ts&#45;&gt;src/systems/debugSystem.ts</title>
<path fill="none" stroke="#000000" stroke-width="2" stroke-opacity="0.200000" d="M486.36,-91.94C492.64,-101.01 503.04,-114.14 515.12,-122 515.67,-122.36 516.23,-122.71 516.8,-123.05"/>
<polygon fill="#000000" fill-opacity="0.200000" stroke="#000000" stroke-width="2" stroke-opacity="0.200000" points="515.55,-124.76 521.84,-125.66 517.48,-121.03 515.55,-124.76"/>
</g>
<!-- src/systems/game/game.ts&#45;&gt;src/utils/solid.ts -->
<g id="edge20" class="edge">
<title>src/systems/game/game.ts&#45;&gt;src/utils/solid.ts</title>
<path fill="none" stroke="#000000" stroke-width="2" stroke-opacity="0.200000" d="M480.28,-91.88C481.45,-111.84 487.2,-156.8 515.12,-177 553.28,-204.6 682.66,-196.86 727,-181 736.15,-177.73 744.7,-171.27 751.45,-165.02"/>
<polygon fill="#000000" fill-opacity="0.200000" stroke="#000000" stroke-width="2" stroke-opacity="0.200000" points="752.63,-166.8 755.4,-161.08 749.67,-163.83 752.63,-166.8"/>
</g>
<!-- src/systems/game/game.ts&#45;&gt;src/utils/obj.ts -->
<g id="edge19" class="edge">
<title>src/systems/game/game.ts&#45;&gt;src/utils/obj.ts</title>
<path fill="none" stroke="#000000" stroke-width="2" stroke-opacity="0.200000" d="M502.34,-91.84C503.73,-93.08 504.98,-94.46 506,-96 517.62,-113.48 499.71,-175.76 515.12,-190 549.71,-221.96 680.78,-200.96 727,-192 755.4,-186.49 785.8,-173.33 806.73,-163.01"/>
<polygon fill="#000000" fill-opacity="0.200000" stroke="#000000" stroke-width="2" stroke-opacity="0.200000" points="807.42,-165.01 811.83,-160.44 805.53,-161.26 807.42,-165.01"/>
</g>
<!-- src/utils/unit.ts -->
<g id="node18" class="node">
<title>src/utils/unit.ts</title>
<g id="a_node18"><a xlink:href="src/utils/unit.ts" xlink:title="unit.ts">
<path fill="#ddfeff" stroke="black" d="M701.33,-174.62C701.33,-174.62 660.17,-174.62 660.17,-174.62 656.96,-174.62 653.75,-171.42 653.75,-168.21 653.75,-168.21 653.75,-161.79 653.75,-161.79 653.75,-158.58 656.96,-155.38 660.17,-155.38 660.17,-155.38 701.33,-155.38 701.33,-155.38 704.54,-155.38 707.75,-158.58 707.75,-161.79 707.75,-161.79 707.75,-168.21 707.75,-168.21 707.75,-171.42 704.54,-174.62 701.33,-174.62"/>
<text text-anchor="start" x="666.12" y="-162.07" font-family="Helvetica,sans-Serif" font-size="9.00">unit.ts</text>
</a>
</g>
</g>
<!-- src/systems/game/game.ts&#45;&gt;src/utils/unit.ts -->
<g id="edge21" class="edge">
<title>src/systems/game/game.ts&#45;&gt;src/utils/unit.ts</title>
<path fill="none" stroke="#000000" stroke-width="2" stroke-opacity="0.200000" d="M480.88,-92.01C483.06,-110.05 490.48,-147.64 515.12,-164 553.54,-189.5 608.92,-183.26 644.62,-175.15"/>
<polygon fill="#000000" fill-opacity="0.200000" stroke="#000000" stroke-width="2" stroke-opacity="0.200000" points="644.97,-177.23 650.31,-173.78 643.98,-173.15 644.97,-177.23"/>
</g>
</g>
</svg>
