<svg xmlns="http://www.w3.org/2000/svg" height="16" width="16"
		 viewBox="0 0 512 512"><!--!Font Awesome Free 6.5.1 by @fontawesome - https://fontawesome.com License - https://fontawesome.com/license/free Copyright 2024 Fonticons, Inc.-->
	<path
		d="M215 71.1L126.1 160H24c-13.3 0-24 10.7-24 24v144c0 13.3 10.7 24 24 24h102.1l89 89c15 15 41 4.5 41-17V88c0-21.5-26-32-41-17zM461.6 256l45.6-45.6c6.3-6.3 6.3-16.5 0-22.8l-22.8-22.8c-6.3-6.3-16.5-6.3-22.8 0L416 210.4l-45.6-45.6c-6.3-6.3-16.5-6.3-22.8 0l-22.8 22.8c-6.3 6.3-6.3 16.5 0 22.8L370.4 256l-45.6 45.6c-6.3 6.3-6.3 16.5 0 22.8l22.8 22.8c6.3 6.3 16.5 6.3 22.8 0L416 301.6l45.6 45.6c6.3 6.3 16.5 6.3 22.8 0l22.8-22.8c6.3-6.3 6.3-16.5 0-22.8L461.6 256z"/>
</svg>
