<?xml version="1.0" encoding="UTF-8" standalone="no"?>
<svg
   fill="white"
   stroke-width="0"
   viewBox="0 0 24 24"
   height="1em"
   width="1em"
   style="overflow: visible; color: currentcolor;"
   version="1.1"
   id="svg2"
   sodipodi:docname="logo.svg"
   xmlns:inkscape="http://www.inkscape.org/namespaces/inkscape"
   xmlns:sodipodi="http://sodipodi.sourceforge.net/DTD/sodipodi-0.dtd"
   xmlns="http://www.w3.org/2000/svg"
   xmlns:svg="http://www.w3.org/2000/svg">
  <defs
     id="defs2" />
  <sodipodi:namedview
     id="namedview2"
     pagecolor="#ffffff"
     bordercolor="#000000"
     borderopacity="0.25"
     inkscape:showpageshadow="2"
     inkscape:pageopacity="0.0"
     inkscape:pagecheckerboard="0"
     inkscape:deskcolor="#d1d1d1" />
  <path
     d="M21 2H3a1 1 0 0 0-1 1v18a1 1 0 0 0 1 1h18a1 1 0 0 0 1-1V3a1 1 0 0 0-1-1zm-1 6h-4v4h4v4h-4v4h-4v-4H8v4H4v-4h4v-4H4V8h4V4h4v4h4V4h4v4z"
     id="path1" />
  <path
     d="M8 8h4v4H8zm4 4h4v4h-4z"
     id="path2" />
</svg>
