<?xml version="1.0" encoding="UTF-8"?>
<svg xmlns="http://www.w3.org/2000/svg" viewBox="0 0 500 500">
	<defs>
		<style>.cls-1{fill:#fbefc4;}.cls-2{fill:#f7c045;}.cls-3{fill:#666564;font-family:Montserrat-Medium,
			Montserrat;font-size:36px;}.cls-4{fill:#f1ab22;}.cls-5{fill:#e58f2a;}.cls-6{fill:none;stroke:#e58f2a;stroke-linecap:round;stroke-linejoin:round;stroke-width:5px;}.cls-7{opacity:.15;}.cls-8{fill:#fcd157;}
		</style>
	</defs>
	<g id="Names">
		<text class="cls-3" transform="translate(0 -10)">
			<tspan x="0" y="0">Rubber Duck</tspan>
		</text>
	</g>
	<g id="Layer_1">
		<g>
			<g>
				<path class="cls-8"
							d="M401.49,240.33c-2.86-8.37-7.18-22.4-7.77-28.02-1.33-12.67-6.65-21.24-18.62-24.6-11.97-3.36-15.29,.7-32.58,18.65-17.29,17.95-28.57,19.68-28.57,19.68-36.97,10.2-58.19-13.23-59.22-14.4,14.62-13.45,23.79-32.73,23.79-54.16,0-40.64-32.94-73.58-73.58-73.58-29.04,0-54.15,16.82-66.12,41.25-4.78,9.76-7.46,20.73-7.46,32.33,0,16.66,5.54,32.02,14.88,44.36-23.77,21-38.21,48.66-38.21,78.97,0,65.67,67.78,118.91,151.39,118.91,132.96,0,160.29-102.99,142.08-159.38Z"/>
				<path class="cls-7"
							d="M280.35,365c25.42-7.32,49.58-24.78,61-56.11l-15.81,20.11-13.84,10.03-23.19,9.85-19.79,4-16.59,1.15-18.77-.69-19-4.54-16.03-9.76-11.33-13.7-6.47-16.44s-1.89,32.69,30.96,51.28c-47.16-11.42-85.19-39.18-103.36-74.88,3.01,63.59,69.58,114.42,151.28,114.42,101.19,0,141.19-59.65,146.51-113.01-17.76,38.87-56.53,72.67-125.57,78.31Z"/>
				<path class="cls-1"
							d="M238.67,92.09c-10.11-5.23-21.57-8.2-33.74-8.2-40.64,0-73.58,32.94-73.58,73.58,0,0,16.68-73.22,107.32-65.39Z"/>
				<path class="cls-1"
							d="M181.01,293.36s19.49-45.75,81.91-39.62l-13.65-3.74-15.92-2.33-15.56,2.33-13.56,6.42-11.28,10.05-7.94,12.71-4,14.18Z"/>
				<path class="cls-7"
							d="M326.5,221.47s0,0,0,0c-44.69,20.09-70.63-8.54-71.77-9.84,9.44-8.68,16.59-19.81,20.48-32.36-.6,.83-20.85,28.73-40.69,34.59-2.14,.63-2.77,3.35-1.14,4.89,11.76,11.09,49.3,39.67,93.13,2.72Z"/>
				<path class="cls-7"
							d="M125.87,224.75c.51-.45,21.45-18.8,32.33-21.59,11.01-2.82,6.8-28.02-8.46-37.73-5.03-3.2-10.91,1.16-16.54,8.43,2.35,10.31,6.85,19.8,13.03,27.97-7.87,6.96-14.72,14.65-20.36,22.92Z"/>
				<ellipse class="cls-5" cx="180.53" cy="136.01" rx="8.78" ry="11.33"/>
				<path class="cls-6"
							d="M233.36,247.67c-29.18,0-52.83,23.65-52.83,52.83s23.76,50.39,52.83,52.83c85.99,7.22,107.99-44.44,107.99-44.44-29.67,3.74-49-61.22-107.99-61.22Z"/>
				<path class="cls-6" d="M341.35,308.89s-20.07,14.58-49.11,11.94"/>
				<path class="cls-6"
							d="M401.49,240.33c-2.86-8.37-7.18-22.4-7.77-28.02-1.33-12.67-6.65-21.24-18.62-24.6-11.97-3.36-15.29,.7-32.58,18.65-17.29,17.95-28.57,19.68-28.57,19.68-36.97,10.2-58.19-13.23-59.22-14.4,14.62-13.45,23.79-32.73,23.79-54.16,0-40.64-32.94-73.58-73.58-73.58-29.04,0-54.15,16.82-66.12,41.25-4.78,9.76-7.46,20.73-7.46,32.33,0,16.66,5.54,32.02,14.88,44.36-23.77,21-38.21,48.66-38.21,78.97,0,65.67,67.78,118.91,151.39,118.91,132.96,0,160.29-102.99,142.08-159.38Z"/>
				<path class="cls-2"
							d="M133.71,177.41c-50.16-14.98-46.33-42.5-40.41-44.37,5.92-1.88,11.43,1.9,19.51,4.31,10.44,3.12,23.33-6.03,23.33-6.03,0,0-3.61,21.57,3.77,26,7.38,4.43,20.66,16.24,15.5,28.78-5.17,12.55-36.9,14.02-40.59,13.28,0,0-10.37-1.42-3.4-14.31,0,0,3.2-6.44,9.13-12.36"/>
				<path class="cls-1"
							d="M93.83,152.68s-1.13-12.21,6.21-11.36c7.34,.85,26.02,5.98,33.62-8.44l-10.41,4.36-10.44,.12-13.19-4.48-6.31,.16-3.36,6.02,3.89,13.62Z"/>
				<path class="cls-7" d="M119.82,199.5s30.18-4.62,33.01-30.13l3.73,8.74-1.16,7.99-5.4,5.98-6.92,3.31-23.26,4.1Z"/>
				<path class="cls-6"
							d="M133.71,177.41c-50.16-14.98-46.33-42.5-40.41-44.37,5.92-1.88,11.43,1.9,19.51,4.31,10.44,3.12,23.33-6.03,23.33-6.03,0,0-3.61,21.57,3.77,26,7.38,4.43,20.66,16.24,15.5,28.78-5.17,12.55-36.9,14.02-40.59,13.28,0,0-10.37-1.42-3.4-14.31,0,0,3.2-6.44,9.13-12.36"/>
			</g>
			<g>
				<path class="cls-4"
							d="M126.32,444.49v3.98s0,4.95,0,4.95h251.6v-8.94c.08-26.8,.14-50.15-34.42-58.93,0,0-122.45-12.18-182.77,0h0c-34.55,8.77-34.49,32.13-34.42,58.93Z"/>
				<path class="cls-2"
							d="M341.24,385.42c-23.77-4.8-57.43-5.72-89.11-5.11-31.68-.61-65.34,.31-89.11,5.11-23.27,5.91-30.44,18.6-32.62,34.49,.01-.01,19.74-19.05,121.73-19.05s121.72,19.04,121.73,19.05c-2.19-15.9-9.36-28.59-32.62-34.49Z"/>
				<path class="cls-6"
							d="M126.32,444.49v3.98s0,4.95,0,4.95h251.6v-8.94c.08-26.8,.14-50.15-34.42-58.93,0,0-122.45-12.18-182.77,0h0c-34.55,8.77-34.49,32.13-34.42,58.93Z"/>
			</g>
		</g>
	</g>
</svg>
